<?xml version="1.0"?>
<svg xmlns:rdf="http://www.w3.org/1999/02/22-rdf-syntax-ns#" xmlns="http://www.w3.org/2000/svg" xmlns:cc="http://creativecommons.org/ns#" xmlns:xlink="http://www.w3.org/1999/xlink" xmlns:dc="http://purl.org/dc/elements/1.1/" xmlns:svg="http://www.w3.org/2000/svg" id="svg4432" viewBox="0 0 692.22 556.79" version="1.0">
  <defs id="defs4434">
    <radialGradient id="radialGradient4458" xlink:href="#linearGradient4307" gradientUnits="userSpaceOnUse" cy="-53.68" cx="972.35" gradientTransform="matrix(.18030 -.056251 .040141 .19310 592.12 582.94)" r="99.467"/>
    <radialGradient id="radialGradient4456" xlink:href="#linearGradient4307" gradientUnits="userSpaceOnUse" cy="21.857" cx="1152.8" gradientTransform="matrix(.20906 0 0 .16975 580.02 512.34)" r="97.042"/>
    <radialGradient id="radialGradient4454" xlink:href="#linearGradient4307" gradientUnits="userSpaceOnUse" cy="176.13" cx="1021.4" gradientTransform="matrix(.27895 -.017120 .0039133 .085687 502.7 526)" r="99.467"/>
    <linearGradient id="linearGradient4307">
      <stop id="stop4309" stop-color="#cbcfd2" offset="0"/>
      <stop id="stop4311" stop-color="#cbcfd2" stop-opacity="0" offset="1"/>
    </linearGradient>
  </defs>
  <g id="layer1" transform="translate(-34.043 -201.11)">
    <g id="g4444" transform="matrix(8.1852 0 0 8.0668 -6138.5 -3715.4)" fill-rule="evenodd">
      <path id="path4446" fill="url(#radialGradient4454)" d="m829 500.24c-5.77-0.76-15.48 7.7-15.48 7.7s-0.12-11.89-5.8-10.84c-13.84 2.56-15.7 7.24-15.7 7.24s-6.28-9.15-11.39-5.87-6.49 13.31-6.49 13.31-7.04-11.83-10.92-4.34c-3.88 7.5-4.4 10.79-1.94 15.7 2.47 4.92 5.63 3.24 14.68 4.09 6.35 0.6 6.17-0.2 17.49 0.74 11.32 0.93 17.91 4.19 28.88-0.34 9.17-3.79 19.21-25.72 6.67-27.39z"/>
      <path id="path4448" fill="url(#radialGradient4456)" d="m831.01 502.79c-5.77-0.76-15.47 7.7-15.47 7.7s-0.12-11.9-5.81-10.84c-13.84 2.56-15.7 7.24-15.7 7.24s-6.27-9.15-11.39-5.87c-5.11 3.28-6.49 13.3-6.49 13.3s-7.04-11.82-10.92-4.33c-3.88 7.5-4.4 10.78-1.93 15.7 2.46 4.92 5.63 3.24 14.68 4.09 6.34 0.6 6.16-0.2 17.48 0.74 11.32 0.93 17.91 4.19 28.89-0.34 9.16-3.79 19.21-25.72 6.66-27.39z"/>
      <path id="path4450" stroke="#000" stroke-width="4.3917" fill="url(#radialGradient4458)" d="m830.22 497.31c-6.16-0.86-16.53 8.69-16.53 8.69s-0.13-13.43-6.2-12.24c-14.78 2.89-16.76 8.17-16.76 8.17s-6.71-10.32-12.17-6.62-6.93 15.02-6.93 15.02-7.52-13.35-11.66-4.89c-4.15 8.45-4.7 12.17-2.07 17.72s6.02 3.65 15.68 4.61c6.77 0.68 6.59-0.23 18.67 0.83 12.09 1.06 19.13 4.74 30.85-0.38 9.79-4.28 20.52-29.03 7.12-30.91z"/>
      <path id="path4452" d="m795.95 487.59l-16.51 24.44 10.17 0.05-11.2 16.59 10.04 0.42-10.11 23.68 28.98-30.96-15.6-0.39 15.6-15.74h-10.49l15.36-18.4-16.24 0.31z" stroke="#000" stroke-linecap="square" stroke-miterlimit="10" stroke-width="3.5" fill="#fdef00"/>
    </g>
  </g>
  <metadata>
    <rdf:RDF>
      <cc:Work>
        <dc:format>image/svg+xml</dc:format>
        <dc:type rdf:resource="http://purl.org/dc/dcmitype/StillImage"/>
        <cc:license rdf:resource="http://creativecommons.org/licenses/publicdomain/"/>
        <dc:publisher>
          <cc:Agent rdf:about="http://openclipart.org/">
            <dc:title>Openclipart</dc:title>
          </cc:Agent>
        </dc:publisher>
        <dc:title>orage</dc:title>
        <dc:date>2008-01-03T19:23:47</dc:date>
        <dc:description>clip art, clipart, cloud, cloud, icon, icon, image, media, png, public domain, storm, storm, svg, thunder, thunder, weather, weather, </dc:description>
        <dc:source>http://openclipart.org/detail/10525/orage-by-yves_guillou-10525</dc:source>
        <dc:creator>
          <cc:Agent>
            <dc:title>yves_guillou</dc:title>
          </cc:Agent>
        </dc:creator>
        <dc:subject>
          <rdf:Bag>
            <rdf:li>clip art</rdf:li>
            <rdf:li>clipart</rdf:li>
            <rdf:li>cloud</rdf:li>
            <rdf:li>icon</rdf:li>
            <rdf:li>image</rdf:li>
            <rdf:li>media</rdf:li>
            <rdf:li>png</rdf:li>
            <rdf:li>public domain</rdf:li>
            <rdf:li>storm</rdf:li>
            <rdf:li>svg</rdf:li>
            <rdf:li>thunder</rdf:li>
            <rdf:li>weather</rdf:li>
          </rdf:Bag>
        </dc:subject>
      </cc:Work>
      <cc:License rdf:about="http://creativecommons.org/licenses/publicdomain/">
        <cc:permits rdf:resource="http://creativecommons.org/ns#Reproduction"/>
        <cc:permits rdf:resource="http://creativecommons.org/ns#Distribution"/>
        <cc:permits rdf:resource="http://creativecommons.org/ns#DerivativeWorks"/>
      </cc:License>
    </rdf:RDF>
  </metadata>
</svg>
